# xmcd
#
# Track frame offsets:
#	150
#	13422
#	22860
#	41078
#	49778
#
# Disc length: 775 seconds
#
# Revision: 0
# Processed by: cddbd v1.5.2PL0 Copyright (c) Steve Scherf et al.
# Submitted via: dBpowerAMP V4.0
#
DISCID=38030505
DTITLE=Varios - Damaged Goods Sampler #3
DYEAR=2010
DGENRE=Punk
TTITLE0=The Fire Dept - Golden Egg
TTITLE1=Cyanide Pills - On The Outside
TTITLE2=Betty and The Werewolves - Good As Gold
TTITLE3=Thee Headcoats - Fingers In The Sun
TTITLE4=Roxy Epoxy and The Rebound - Fun
EXTD=
EXTT0=
EXTT1=
EXTT2=
EXTT3=
EXTT4=
PLAYORDER=
